<mxfile host="app.diagrams.net" modified="2024-02-20T07:54:07.281Z" agent="Mozilla/5.0 (Windows NT 10.0; Win64; x64) AppleWebKit/537.36 (KHTML, like Gecko) Chrome/121.0.0.0 Safari/537.36" etag="fKJUOoETZVzDBrJlMezL" version="23.0.2" type="github">
  <diagram name="第 1 页" id="VhgdDwe0wJHQua5nWNlb">
    <mxGraphModel dx="1257" dy="756" grid="0" gridSize="10" guides="0" tooltips="1" connect="1" arrows="1" fold="1" page="0" pageScale="1" pageWidth="850" pageHeight="1400" math="0" shadow="0">
      <root>
        <mxCell id="0" />
        <mxCell id="1" parent="0" />
        <mxCell id="kjOYzi7-j1rwlo9SkPTQ-11" style="edgeStyle=orthogonalEdgeStyle;rounded=0;orthogonalLoop=1;jettySize=auto;html=1;exitX=0.5;exitY=1;exitDx=0;exitDy=0;exitPerimeter=0;entryX=0.5;entryY=0;entryDx=0;entryDy=0;" edge="1" parent="1" source="kjOYzi7-j1rwlo9SkPTQ-1" target="kjOYzi7-j1rwlo9SkPTQ-10">
          <mxGeometry relative="1" as="geometry" />
        </mxCell>
        <mxCell id="kjOYzi7-j1rwlo9SkPTQ-1" value="&lt;font style=&quot;font-size: 24px;&quot;&gt;开始&lt;/font&gt;" style="strokeWidth=2;html=1;shape=mxgraph.flowchart.terminator;whiteSpace=wrap;" vertex="1" parent="1">
          <mxGeometry x="474" y="11" width="100" height="60" as="geometry" />
        </mxCell>
        <mxCell id="kjOYzi7-j1rwlo9SkPTQ-2" value="&lt;font style=&quot;font-size: 24px;&quot;&gt;结束&lt;/font&gt;" style="strokeWidth=2;html=1;shape=mxgraph.flowchart.terminator;whiteSpace=wrap;" vertex="1" parent="1">
          <mxGeometry x="834" y="473.5" width="100" height="60" as="geometry" />
        </mxCell>
        <mxCell id="kjOYzi7-j1rwlo9SkPTQ-6" style="edgeStyle=orthogonalEdgeStyle;rounded=0;orthogonalLoop=1;jettySize=auto;html=1;exitX=0.5;exitY=1;exitDx=0;exitDy=0;" edge="1" parent="1" source="kjOYzi7-j1rwlo9SkPTQ-3" target="kjOYzi7-j1rwlo9SkPTQ-4">
          <mxGeometry relative="1" as="geometry" />
        </mxCell>
        <mxCell id="kjOYzi7-j1rwlo9SkPTQ-3" value="&lt;font style=&quot;font-size: 18px;&quot;&gt;获取当前的时间&lt;br&gt;秒级+分级&lt;/font&gt;" style="rounded=1;whiteSpace=wrap;html=1;absoluteArcSize=1;arcSize=14;strokeWidth=2;" vertex="1" parent="1">
          <mxGeometry x="444" y="242" width="160" height="63" as="geometry" />
        </mxCell>
        <mxCell id="kjOYzi7-j1rwlo9SkPTQ-4" value="&lt;font style=&quot;font-size: 18px;&quot;&gt;将java内存中的&lt;br&gt;totalNum++&lt;/font&gt;" style="rounded=1;whiteSpace=wrap;html=1;absoluteArcSize=1;arcSize=14;strokeWidth=2;" vertex="1" parent="1">
          <mxGeometry x="444" y="344" width="160" height="63" as="geometry" />
        </mxCell>
        <mxCell id="kjOYzi7-j1rwlo9SkPTQ-13" style="edgeStyle=orthogonalEdgeStyle;rounded=0;orthogonalLoop=1;jettySize=auto;html=1;exitX=1;exitY=0.5;exitDx=0;exitDy=0;exitPerimeter=0;" edge="1" parent="1" source="kjOYzi7-j1rwlo9SkPTQ-7" target="kjOYzi7-j1rwlo9SkPTQ-2">
          <mxGeometry relative="1" as="geometry" />
        </mxCell>
        <mxCell id="kjOYzi7-j1rwlo9SkPTQ-14" value="&lt;font style=&quot;font-size: 24px;&quot;&gt;否&lt;/font&gt;" style="edgeLabel;html=1;align=center;verticalAlign=middle;resizable=0;points=[];" vertex="1" connectable="0" parent="kjOYzi7-j1rwlo9SkPTQ-13">
          <mxGeometry x="0.0555" y="1" relative="1" as="geometry">
            <mxPoint x="-2" y="-13" as="offset" />
          </mxGeometry>
        </mxCell>
        <mxCell id="kjOYzi7-j1rwlo9SkPTQ-18" style="edgeStyle=orthogonalEdgeStyle;rounded=0;orthogonalLoop=1;jettySize=auto;html=1;exitX=0.5;exitY=1;exitDx=0;exitDy=0;exitPerimeter=0;entryX=0.5;entryY=0;entryDx=0;entryDy=0;" edge="1" parent="1" source="kjOYzi7-j1rwlo9SkPTQ-7" target="kjOYzi7-j1rwlo9SkPTQ-17">
          <mxGeometry relative="1" as="geometry" />
        </mxCell>
        <mxCell id="kjOYzi7-j1rwlo9SkPTQ-7" value="&lt;font style=&quot;font-size: 18px;&quot;&gt;判断时间是否已过&lt;br&gt;上一次提交redis时间&lt;/font&gt;" style="strokeWidth=2;html=1;shape=mxgraph.flowchart.decision;whiteSpace=wrap;" vertex="1" parent="1">
          <mxGeometry x="382.5" y="455" width="283" height="97" as="geometry" />
        </mxCell>
        <mxCell id="kjOYzi7-j1rwlo9SkPTQ-9" style="edgeStyle=orthogonalEdgeStyle;rounded=0;orthogonalLoop=1;jettySize=auto;html=1;exitX=0.5;exitY=1;exitDx=0;exitDy=0;entryX=0.5;entryY=0;entryDx=0;entryDy=0;entryPerimeter=0;" edge="1" parent="1" source="kjOYzi7-j1rwlo9SkPTQ-4" target="kjOYzi7-j1rwlo9SkPTQ-7">
          <mxGeometry relative="1" as="geometry" />
        </mxCell>
        <mxCell id="kjOYzi7-j1rwlo9SkPTQ-12" style="edgeStyle=orthogonalEdgeStyle;rounded=0;orthogonalLoop=1;jettySize=auto;html=1;exitX=0.5;exitY=1;exitDx=0;exitDy=0;" edge="1" parent="1" source="kjOYzi7-j1rwlo9SkPTQ-10" target="kjOYzi7-j1rwlo9SkPTQ-3">
          <mxGeometry relative="1" as="geometry" />
        </mxCell>
        <mxCell id="kjOYzi7-j1rwlo9SkPTQ-10" value="&lt;span style=&quot;font-size: 18px;&quot;&gt;有一个&lt;br&gt;工作台dsf请求&lt;br&gt;经过新增的过滤器&lt;br&gt;&lt;/span&gt;" style="rounded=1;whiteSpace=wrap;html=1;absoluteArcSize=1;arcSize=14;strokeWidth=2;" vertex="1" parent="1">
          <mxGeometry x="444" y="107" width="160" height="77" as="geometry" />
        </mxCell>
        <mxCell id="kjOYzi7-j1rwlo9SkPTQ-16" value="&lt;font style=&quot;font-size: 24px;&quot;&gt;结束&lt;/font&gt;" style="strokeWidth=2;html=1;shape=mxgraph.flowchart.terminator;whiteSpace=wrap;" vertex="1" parent="1">
          <mxGeometry x="474" y="1022" width="100" height="60" as="geometry" />
        </mxCell>
        <mxCell id="kjOYzi7-j1rwlo9SkPTQ-20" style="edgeStyle=orthogonalEdgeStyle;rounded=0;orthogonalLoop=1;jettySize=auto;html=1;exitX=0.5;exitY=1;exitDx=0;exitDy=0;entryX=0.5;entryY=0;entryDx=0;entryDy=0;" edge="1" parent="1" source="kjOYzi7-j1rwlo9SkPTQ-17" target="kjOYzi7-j1rwlo9SkPTQ-19">
          <mxGeometry relative="1" as="geometry" />
        </mxCell>
        <mxCell id="kjOYzi7-j1rwlo9SkPTQ-17" value="&lt;font style=&quot;font-size: 18px;&quot;&gt;取出当前提交时间&lt;br&gt;以及当前分钟访问总数（totalNum）&lt;/font&gt;" style="rounded=1;whiteSpace=wrap;html=1;absoluteArcSize=1;arcSize=14;strokeWidth=2;" vertex="1" parent="1">
          <mxGeometry x="444" y="600" width="160" height="86" as="geometry" />
        </mxCell>
        <mxCell id="kjOYzi7-j1rwlo9SkPTQ-22" style="edgeStyle=orthogonalEdgeStyle;rounded=0;orthogonalLoop=1;jettySize=auto;html=1;exitX=0.5;exitY=1;exitDx=0;exitDy=0;" edge="1" parent="1" source="kjOYzi7-j1rwlo9SkPTQ-19" target="kjOYzi7-j1rwlo9SkPTQ-21">
          <mxGeometry relative="1" as="geometry" />
        </mxCell>
        <mxCell id="kjOYzi7-j1rwlo9SkPTQ-19" value="&lt;font style=&quot;font-size: 18px;&quot;&gt;初始化java内存中&lt;br&gt;map和当前时间和totalNum&lt;/font&gt;" style="rounded=1;whiteSpace=wrap;html=1;absoluteArcSize=1;arcSize=14;strokeWidth=2;" vertex="1" parent="1">
          <mxGeometry x="445" y="734" width="160" height="86" as="geometry" />
        </mxCell>
        <mxCell id="kjOYzi7-j1rwlo9SkPTQ-21" value="&lt;font style=&quot;font-size: 18px;&quot;&gt;异步提交数据至&lt;br&gt;Redis&lt;/font&gt;" style="rounded=1;whiteSpace=wrap;html=1;absoluteArcSize=1;arcSize=14;strokeWidth=2;" vertex="1" parent="1">
          <mxGeometry x="445" y="900" width="160" height="67" as="geometry" />
        </mxCell>
        <mxCell id="kjOYzi7-j1rwlo9SkPTQ-23" value="" style="strokeWidth=2;html=1;shape=mxgraph.flowchart.annotation_2;align=left;labelPosition=right;pointerEvents=1;" vertex="1" parent="1">
          <mxGeometry x="649" y="878" width="50" height="100" as="geometry" />
        </mxCell>
        <mxCell id="kjOYzi7-j1rwlo9SkPTQ-24" value="&lt;font style=&quot;font-size: 18px;&quot;&gt;包含每秒的访问量和该分钟访问总量&lt;/font&gt;" style="text;strokeColor=none;align=center;fillColor=none;html=1;verticalAlign=middle;whiteSpace=wrap;rounded=0;" vertex="1" parent="1">
          <mxGeometry x="730" y="915" width="160" height="30" as="geometry" />
        </mxCell>
        <mxCell id="kjOYzi7-j1rwlo9SkPTQ-25" style="edgeStyle=orthogonalEdgeStyle;rounded=0;orthogonalLoop=1;jettySize=auto;html=1;exitX=0.5;exitY=1;exitDx=0;exitDy=0;entryX=0.5;entryY=0;entryDx=0;entryDy=0;entryPerimeter=0;" edge="1" parent="1" source="kjOYzi7-j1rwlo9SkPTQ-21" target="kjOYzi7-j1rwlo9SkPTQ-16">
          <mxGeometry relative="1" as="geometry" />
        </mxCell>
      </root>
    </mxGraphModel>
  </diagram>
</mxfile>
